<?xml version="1.0" encoding="UTF-8" standalone="no"?>
<svg
   version="1.0"
   width="1749.2227pt"
   height="1927.478pt"
   viewBox="0 0 1749.2227 1927.4781"
   preserveAspectRatio="xMidYMid"
   id="svg15"
   sodipodi:docname="logo.svg"
   inkscape:version="1.3 (0e150ed, 2023-07-21)"
   xmlns:inkscape="http://www.inkscape.org/namespaces/inkscape"
   xmlns:sodipodi="http://sodipodi.sourceforge.net/DTD/sodipodi-0.dtd"
   xmlns="http://www.w3.org/2000/svg"
   xmlns:svg="http://www.w3.org/2000/svg">
  <defs
     id="defs15" />
  <sodipodi:namedview
     id="namedview15"
     pagecolor="#ffffff"
     bordercolor="#000000"
     borderopacity="0.25"
     inkscape:showpageshadow="2"
     inkscape:pageopacity="0.0"
     inkscape:pagecheckerboard="0"
     inkscape:deskcolor="#d1d1d1"
     inkscape:document-units="pt"
     inkscape:zoom="0.18899658"
     inkscape:cx="1171.9789"
     inkscape:cy="1285.7376"
     inkscape:window-width="1392"
     inkscape:window-height="1027"
     inkscape:window-x="0"
     inkscape:window-y="25"
     inkscape:window-maximized="0"
     inkscape:current-layer="svg15" />
  <g
     transform="matrix(0.1,0,0,-0.1,-361.1968,2717.9032)"
     fill="#000000"
     stroke="none"
     id="g15"
     style="fill:#000000;fill-opacity:1">
    <path
       d="m 12285,27163 c -27,-9 -59,-19 -70,-23 -11,-4 -40,-13 -65,-20 -25,-7 -54,-16 -65,-20 -25,-10 -165,-53 -225,-70 -25,-7 -54,-16 -65,-20 -11,-4 -40,-13 -65,-21 -25,-7 -90,-27 -145,-44 -55,-18 -120,-38 -145,-45 -25,-7 -54,-16 -65,-20 -11,-4 -60,-20 -110,-35 -49,-15 -115,-35 -145,-45 -30,-9 -75,-23 -100,-30 -25,-7 -54,-16 -65,-20 -25,-10 -165,-53 -225,-70 -25,-7 -54,-16 -65,-20 -11,-4 -36,-12 -55,-18 -19,-6 -87,-26 -150,-46 -63,-20 -133,-41 -155,-47 -22,-6 -49,-15 -60,-19 -11,-4 -60,-20 -110,-35 -148,-44 -159,-47 -180,-55 -11,-5 -54,-18 -95,-30 -41,-12 -106,-32 -145,-45 -38,-12 -101,-32 -140,-43 -97,-30 -295,-92 -325,-102 -14,-4 -45,-13 -70,-20 -25,-7 -54,-16 -65,-20 -11,-4 -60,-20 -110,-35 -49,-15 -117,-36 -150,-47 -33,-10 -73,-22 -90,-27 -16,-5 -82,-25 -145,-45 -63,-20 -133,-41 -155,-47 -22,-6 -49,-15 -60,-19 -11,-4 -60,-20 -110,-35 -49,-14 -99,-30 -110,-34 -11,-5 -38,-14 -60,-20 -36,-10 -232,-70 -295,-91 -14,-4 -45,-13 -70,-20 -25,-7 -54,-16 -65,-20 -11,-4 -36,-12 -55,-18 -152,-45 -278,-85 -292,-93 -10,-5 -25,-9 -34,-9 -9,0 -48,-11 -87,-24 -77,-26 -247,-79 -312,-97 -22,-6 -49,-15 -60,-19 -21,-9 -162,-52 -230,-71 -22,-6 -49,-15 -60,-19 -11,-4 -60,-20 -110,-35 -49,-15 -115,-35 -145,-45 -30,-9 -75,-23 -100,-30 -25,-7 -54,-16 -65,-20 -25,-10 -165,-53 -225,-70 -25,-7 -54,-16 -65,-20 -19,-7 -223,-71 -290,-91 -16,-5 -57,-17 -90,-27 -33,-11 -100,-31 -150,-46 -49,-16 -98,-32 -107,-37 -10,-5 -27,-9 -38,-9 -11,0 -28,-4 -38,-9 -9,-5 -33,-13 -52,-19 -19,-6 -87,-26 -150,-46 -63,-20 -144,-45 -180,-56 -36,-11 -115,-36 -175,-55 -61,-19 -116,-35 -123,-35 -7,0 -20,-4 -30,-9 -9,-5 -37,-15 -62,-21 -25,-7 -54,-16 -65,-20 -19,-8 -149,-48 -230,-72 -22,-6 -71,-21 -110,-34 -38,-12 -89,-27 -111,-33 -48,-13 -53,-21 -65,-116 -5,-38 -16,-117 -25,-175 -8,-58 -20,-145 -25,-195 -5,-49 -14,-130 -19,-180 -35,-319 -72,-821 -91,-1215 -17,-373 -23,-1274 -10,-1570 28,-624 59,-1086 102,-1500 5,-52 13,-133 18,-180 5,-47 16,-139 25,-205 9,-66 21,-156 27,-200 5,-44 14,-114 20,-155 6,-41 15,-104 19,-140 13,-93 25,-171 44,-285 9,-55 21,-127 27,-160 5,-33 14,-85 19,-115 6,-30 15,-82 20,-115 10,-57 14,-80 40,-224 6,-36 13,-67 15,-71 2,-4 9,-35 15,-71 30,-163 50,-265 84,-414 13,-55 29,-127 36,-160 6,-33 16,-70 21,-83 5,-13 9,-33 9,-44 0,-12 4,-35 9,-52 10,-32 13,-44 56,-206 73,-276 73,-278 110,-400 14,-47 30,-103 36,-125 24,-84 32,-111 39,-130 4,-11 24,-74 45,-140 20,-66 41,-129 45,-140 4,-11 15,-42 23,-70 17,-55 88,-261 117,-340 10,-27 35,-95 55,-150 20,-55 40,-109 45,-120 4,-11 23,-58 40,-105 18,-47 38,-98 45,-115 7,-16 36,-88 65,-160 59,-146 67,-167 104,-248 14,-32 26,-60 26,-62 0,-3 10,-27 21,-53 12,-26 27,-60 34,-77 81,-190 333,-700 415,-840 10,-16 29,-50 42,-75 64,-115 96,-172 151,-265 33,-55 68,-113 77,-130 21,-37 128,-206 189,-300 25,-38 48,-74 51,-80 14,-28 304,-451 389,-565 105,-142 166,-224 178,-240 7,-8 40,-51 75,-95 34,-44 65,-82 68,-85 3,-3 24,-27 45,-55 22,-27 42,-52 45,-55 3,-3 32,-36 65,-75 485,-568 1034,-1096 1570,-1511 275,-213 762,-564 781,-564 3,0 37,-22 77,-48 80,-54 223,-144 272,-172 18,-10 43,-24 56,-32 13,-7 31,-18 39,-24 8,-6 42,-26 75,-44 33,-18 85,-46 115,-63 30,-16 60,-33 65,-37 6,-4 45,-26 87,-49 43,-22 113,-60 155,-82 194,-104 635,-319 778,-379 11,-4 46,-20 78,-34 32,-14 60,-26 62,-26 3,0 27,-9 53,-21 54,-24 48,-22 207,-83 66,-26 128,-51 137,-57 10,-5 25,-9 33,-9 8,0 23,-4 33,-9 20,-12 161,-65 229,-87 27,-8 57,-19 68,-24 35,-15 469,-157 502,-165 29,-6 157,25 228,56 11,4 83,29 160,54 77,25 148,50 157,55 10,6 25,10 33,10 8,0 23,4 33,9 9,5 62,26 117,46 55,20 108,40 117,46 10,5 25,9 33,9 8,0 23,4 33,9 14,8 141,58 227,91 25,9 59,23 105,43 19,8 64,27 100,42 194,80 332,145 625,292 213,106 288,145 435,226 204,112 218,120 303,171 43,25 80,46 82,46 3,0 43,25 90,55 46,30 87,55 90,55 12,0 523,345 561,378 6,5 42,32 80,59 39,28 93,67 120,88 27,20 62,46 78,58 186,140 438,342 531,426 22,20 76,67 120,106 217,189 633,605 865,865 47,52 91,101 98,109 17,18 155,183 164,196 4,5 22,28 40,50 181,216 519,678 703,960 106,162 236,366 249,390 6,11 48,81 92,155 44,74 92,155 106,180 14,25 35,63 48,85 12,22 36,65 53,95 89,156 288,555 397,795 5,11 28,63 51,115 22,52 47,111 56,130 8,19 19,44 23,55 4,11 18,43 30,70 32,71 208,518 232,590 11,33 29,78 39,99 11,22 19,48 19,57 0,10 5,21 10,24 6,3 10,15 10,26 0,10 4,27 10,37 10,19 64,171 87,247 8,28 19,58 24,67 5,10 9,25 9,33 0,8 4,23 9,33 5,9 17,44 27,77 10,33 22,64 26,70 4,5 8,19 8,31 0,13 4,25 9,28 5,3 11,20 14,38 2,18 21,87 42,153 20,66 41,135 46,153 23,82 31,109 39,142 10,40 22,82 44,160 9,30 19,72 23,93 3,21 10,40 14,43 5,3 9,17 9,31 0,15 4,40 10,57 5,17 23,89 40,159 43,180 60,260 100,462 9,46 45,225 55,270 3,17 11,54 16,83 5,28 13,76 19,105 5,28 14,79 19,112 18,108 30,179 46,270 16,86 24,140 45,285 5,36 14,99 20,140 6,41 15,107 20,145 5,39 16,124 25,190 40,289 74,633 104,1040 6,83 13,167 16,188 3,21 8,93 10,160 3,67 10,185 15,262 11,159 29,1041 23,1125 -2,30 -8,253 -14,495 -13,569 -25,784 -70,1265 -35,384 -47,489 -83,747 -23,170 -14,155 -119,187 -51,15 -103,32 -117,36 -21,7 -124,39 -300,92 -19,6 -44,14 -55,18 -11,4 -36,12 -55,17 -62,18 -214,65 -235,73 -11,4 -36,12 -55,18 -19,6 -89,27 -155,47 -66,20 -136,41 -155,47 -19,6 -44,14 -55,18 -11,4 -40,13 -65,20 -25,7 -90,27 -145,45 -55,18 -120,38 -145,45 -25,7 -54,16 -65,20 -11,4 -40,13 -65,20 -25,7 -90,27 -145,45 -55,18 -120,38 -145,45 -25,7 -54,16 -65,20 -11,4 -54,18 -95,30 -41,12 -106,32 -145,45 -38,12 -90,28 -115,35 -25,7 -76,23 -115,35 -38,13 -104,33 -145,45 -41,12 -84,25 -95,30 -11,4 -74,24 -140,44 -66,21 -128,42 -137,47 -10,5 -27,9 -38,9 -11,0 -28,4 -38,9 -9,5 -51,19 -92,31 -41,12 -106,32 -145,45 -38,12 -90,28 -115,35 -25,7 -54,16 -65,20 -11,4 -60,20 -110,34 -49,15 -98,31 -107,36 -10,6 -27,10 -38,10 -11,0 -28,4 -38,9 -9,5 -33,13 -52,19 -50,15 -265,81 -330,102 -30,9 -75,23 -100,30 -25,7 -90,28 -145,45 -55,18 -120,38 -145,45 -25,7 -70,21 -100,30 -100,33 -284,90 -325,101 -22,7 -85,26 -140,44 -55,18 -120,38 -145,45 -25,7 -76,23 -115,35 -84,28 -254,81 -310,97 -90,25 -261,81 -277,89 -10,5 -27,9 -38,9 -11,0 -28,4 -38,9 -9,5 -51,19 -92,31 -41,12 -109,33 -150,46 -82,26 -82,26 -255,78 -66,20 -128,41 -137,46 -10,6 -27,10 -38,10 -11,0 -28,4 -38,9 -9,5 -37,15 -62,21 -25,7 -90,27 -145,45 -55,18 -134,42 -175,55 -102,30 -120,35 -240,74 -58,18 -125,39 -150,46 -25,7 -90,27 -145,45 -109,35 -201,63 -310,96 -38,11 -101,31 -140,43 -38,13 -90,29 -115,36 -25,7 -54,16 -65,20 -46,17 -133,40 -151,39 -10,0 -41,-8 -69,-16 z m 107,-492 c 13,-5 57,-19 98,-31 41,-12 86,-26 100,-30 14,-5 79,-25 145,-45 66,-20 129,-40 140,-45 11,-4 38,-13 60,-19 48,-13 188,-56 270,-82 33,-11 74,-23 90,-28 79,-24 276,-84 325,-101 30,-9 89,-28 130,-40 41,-12 109,-33 150,-46 41,-13 89,-28 105,-33 155,-47 279,-86 325,-100 30,-10 75,-24 100,-31 25,-7 54,-16 65,-20 11,-4 61,-20 110,-35 50,-15 117,-36 150,-47 33,-10 74,-22 90,-27 17,-5 82,-25 145,-45 63,-20 133,-41 155,-48 55,-15 256,-79 280,-88 11,-4 38,-13 60,-19 61,-17 175,-51 220,-66 22,-8 87,-28 145,-46 215,-64 265,-80 282,-89 10,-6 27,-10 38,-10 11,0 28,-4 38,-9 9,-5 51,-19 92,-31 41,-11 93,-27 115,-35 22,-7 87,-28 145,-45 129,-39 140,-42 270,-84 58,-18 139,-43 180,-56 41,-12 122,-37 180,-55 58,-18 152,-47 210,-65 58,-17 137,-42 175,-54 39,-13 90,-29 115,-36 25,-7 54,-16 65,-20 11,-4 74,-24 140,-45 66,-20 131,-41 145,-45 14,-5 72,-23 130,-40 58,-18 137,-42 175,-55 39,-12 90,-28 115,-35 25,-7 56,-16 70,-20 63,-21 252,-80 320,-100 41,-13 120,-37 175,-55 55,-17 120,-38 145,-45 25,-7 70,-21 100,-30 61,-20 174,-55 290,-90 41,-12 125,-38 185,-57 61,-19 126,-39 145,-45 19,-6 44,-14 55,-18 11,-4 40,-13 65,-20 25,-7 90,-27 145,-45 55,-18 120,-38 145,-45 84,-24 165,-52 175,-61 5,-5 13,-42 17,-82 11,-102 28,-275 38,-392 5,-55 16,-174 25,-265 81,-834 81,-2444 0,-3340 -41,-445 -51,-558 -64,-665 -41,-353 -48,-405 -66,-525 -10,-58 -21,-132 -25,-165 -5,-33 -14,-94 -20,-135 -6,-41 -15,-100 -20,-130 -13,-86 -29,-178 -46,-265 -8,-44 -20,-105 -25,-135 -31,-184 -57,-324 -85,-455 -24,-115 -31,-148 -55,-252 -6,-27 -14,-66 -19,-88 -36,-160 -63,-273 -71,-287 -5,-10 -9,-28 -9,-40 0,-12 -4,-35 -9,-52 -5,-17 -14,-49 -20,-71 -6,-22 -29,-105 -52,-185 -22,-80 -49,-178 -60,-219 -11,-40 -33,-112 -48,-160 -15,-47 -38,-120 -51,-161 -31,-102 -112,-344 -156,-465 -19,-55 -38,-110 -41,-123 -3,-12 -9,-25 -14,-28 -5,-3 -9,-14 -9,-25 0,-10 -4,-27 -9,-37 -5,-9 -30,-73 -56,-142 -26,-69 -50,-134 -55,-145 -4,-11 -20,-50 -34,-88 -14,-37 -35,-89 -47,-115 -25,-56 -32,-74 -52,-127 -8,-22 -26,-65 -40,-95 -14,-31 -35,-80 -47,-110 -12,-30 -34,-82 -49,-115 -16,-33 -38,-82 -50,-110 -32,-71 -283,-575 -332,-665 -22,-41 -60,-109 -83,-150 -24,-41 -53,-91 -63,-110 -135,-237 -381,-624 -575,-901 -73,-105 -137,-199 -143,-207 -16,-26 -232,-318 -247,-333 -7,-8 -31,-37 -53,-64 -43,-56 -236,-287 -244,-295 -4,-3 -44,-48 -91,-100 -234,-263 -642,-671 -865,-865 -44,-39 -82,-72 -85,-75 -21,-22 -217,-184 -315,-261 -66,-51 -122,-96 -125,-99 -6,-6 -156,-119 -186,-140 -12,-8 -59,-42 -104,-75 -45,-33 -99,-71 -120,-85 -81,-54 -155,-105 -160,-111 -7,-8 -349,-229 -355,-229 -3,0 -36,-20 -75,-45 -39,-25 -72,-45 -74,-45 -2,0 -43,-24 -92,-53 -93,-56 -134,-78 -350,-195 -222,-119 -711,-362 -730,-362 -2,0 -38,-16 -80,-35 -41,-19 -77,-35 -80,-35 -2,0 -26,-10 -52,-21 -181,-81 -579,-230 -946,-355 l -160,-54 -60,20 c -125,41 -492,167 -521,179 -11,5 -40,16 -65,26 -25,10 -54,21 -65,25 -11,5 -58,23 -105,40 -94,36 -217,84 -268,106 -17,8 -49,21 -70,30 -20,9 -55,24 -77,34 -22,9 -56,24 -75,32 -189,81 -768,373 -882,445 -21,13 -40,23 -42,23 -7,0 -264,148 -324,186 -29,19 -55,34 -57,34 -14,0 -661,431 -675,449 -3,4 -36,29 -75,56 -38,27 -75,54 -82,60 -6,5 -53,42 -103,80 -85,65 -369,292 -380,304 -3,4 -36,33 -75,66 -306,261 -753,709 -1081,1085 -365,420 -828,1067 -1144,1605 -72,122 -212,366 -252,440 -42,77 -303,601 -328,660 -16,34 -100,229 -109,250 -5,11 -18,40 -29,65 -11,25 -52,126 -91,225 -40,99 -76,189 -81,200 -4,11 -13,36 -20,55 -7,19 -16,44 -20,55 -4,11 -20,52 -35,90 -15,39 -31,79 -35,90 -14,33 -59,163 -102,290 -22,66 -44,128 -49,137 -5,10 -9,26 -9,36 0,10 -4,22 -8,28 -4,5 -16,36 -26,69 -10,33 -22,69 -26,80 -4,11 -13,40 -20,65 -7,25 -16,56 -21,70 -17,53 -79,258 -94,315 -9,33 -21,76 -27,95 -5,19 -13,51 -18,70 -5,19 -21,78 -35,130 -15,52 -31,111 -35,130 -4,19 -13,55 -18,80 -6,25 -22,92 -36,150 -15,58 -31,125 -36,150 -5,25 -18,88 -30,140 -11,52 -23,111 -26,130 -3,19 -9,51 -14,70 -10,37 -48,225 -61,300 -4,25 -13,74 -19,110 -40,221 -100,589 -120,735 -6,44 -15,109 -20,145 -5,36 -12,85 -15,110 -3,25 -12,99 -21,165 -22,171 -43,364 -64,595 -4,52 -15,176 -24,275 -43,473 -60,952 -61,1670 0,715 17,1190 60,1660 10,99 21,225 26,280 5,55 13,143 18,195 5,52 12,124 16,160 3,36 8,74 10,86 6,27 45,44 185,84 25,7 54,16 65,20 11,4 61,20 110,35 50,15 117,36 150,47 33,10 74,22 90,27 17,5 80,25 140,44 61,19 144,45 185,57 41,12 120,37 175,55 55,17 120,37 145,44 25,8 56,17 70,21 31,11 301,94 390,121 36,11 115,36 175,55 61,19 128,39 150,46 22,6 85,25 140,43 96,31 159,50 310,96 39,12 102,31 140,44 39,12 104,32 145,45 41,13 107,33 145,45 175,56 534,166 560,172 11,3 29,8 40,13 11,4 54,18 95,30 41,12 107,32 145,45 39,12 104,32 145,44 41,12 86,26 100,31 35,12 247,78 295,92 22,6 85,26 140,43 55,18 147,47 205,64 58,18 155,48 215,67 61,19 128,39 150,45 22,6 49,15 60,19 11,4 61,20 110,35 50,15 99,31 110,35 11,4 38,13 60,19 22,6 90,26 150,45 61,19 144,44 185,56 41,12 84,26 95,30 11,4 61,20 110,35 50,15 117,36 150,46 33,11 74,23 90,28 17,5 82,25 145,45 63,20 129,40 145,45 174,53 280,86 330,102 33,11 74,24 90,28 17,5 95,30 175,55 80,24 179,54 220,66 41,12 84,26 95,30 21,9 160,52 230,71 22,6 49,15 60,19 11,4 61,20 110,35 50,15 115,35 145,45 30,10 89,27 130,40 41,12 86,25 100,30 34,11 36,11 62,1 z"
       id="path1"
       style="fill:#000000;fill-opacity:1" />
    <path
       d="m 12446,22075 c -3,-8 -6,-264 -6,-567 -1,-304 -3,-564 -4,-578 -2,-14 -5,-306 -7,-650 l -4,-625 251,-3 252,-2 6,182 c 7,244 25,2241 19,2251 -2,4 -116,7 -253,7 -211,0 -249,-2 -254,-15 z"
       id="path2"
       style="fill:#000000;fill-opacity:1" />
    <path
       d="m 10295,22060 c -27,-5 -111,-9 -185,-10 -161,-2 -180,-7 -199,-45 -8,-17 -18,-38 -23,-47 -4,-10 -8,-27 -8,-37 0,-11 -4,-23 -10,-26 -5,-3 -10,-15 -10,-26 0,-10 -4,-27 -9,-37 -6,-9 -18,-42 -27,-72 -9,-30 -20,-59 -24,-65 -3,-5 -12,-30 -19,-55 -7,-25 -17,-54 -22,-65 -4,-11 -19,-54 -33,-95 -14,-41 -52,-154 -86,-250 -33,-96 -81,-236 -106,-310 -58,-172 -93,-270 -105,-292 -5,-10 -9,-27 -9,-37 0,-11 -4,-23 -10,-26 -5,-3 -10,-16 -10,-29 0,-12 -4,-26 -8,-31 -4,-6 -16,-37 -27,-70 -10,-33 -22,-64 -27,-69 -4,-6 -8,-20 -8,-32 0,-13 -4,-25 -9,-28 -5,-3 -11,-18 -14,-33 -2,-16 -26,-86 -52,-158 -25,-71 -64,-182 -85,-245 -22,-63 -53,-153 -69,-200 -46,-128 -52,-121 87,-114 226,10 396,24 403,31 4,5 40,105 79,223 39,118 75,219 80,224 5,5 76,13 157,17 602,34 941,49 959,42 8,-3 21,-22 30,-42 9,-20 34,-72 54,-116 21,-44 45,-98 55,-120 62,-143 79,-170 97,-159 4,3 110,9 235,15 125,5 236,12 246,15 22,7 22,23 -3,71 -11,21 -42,85 -69,143 -27,58 -79,168 -116,245 -37,77 -78,165 -92,195 -27,59 -66,142 -158,335 -31,66 -66,140 -77,165 -11,25 -42,90 -68,145 -62,130 -146,308 -173,365 -11,25 -53,114 -94,198 -40,84 -73,154 -73,157 0,2 -29,63 -64,137 -35,73 -73,154 -85,181 l -21,47 -73,-1 c -39,-1 -94,-5 -122,-9 z m -26,-602 c 30,-79 50,-126 139,-318 16,-36 41,-90 55,-120 14,-30 38,-84 55,-120 16,-36 41,-90 55,-120 14,-30 41,-90 61,-133 40,-86 44,-112 19,-125 -10,-5 -97,-13 -193,-16 -96,-4 -256,-11 -355,-15 -99,-4 -186,-5 -192,-3 -7,2 -13,12 -13,21 -1,14 127,417 150,476 5,11 20,58 35,105 15,47 31,94 35,105 5,11 30,89 56,173 27,83 53,152 59,152 5,0 21,-28 34,-62 z"
       id="path3"
       style="fill:#000000;fill-opacity:1" />
    <path
       d="m 14147,21819 c -10,-140 -20,-279 -22,-309 -3,-30 -10,-127 -16,-215 -5,-88 -14,-227 -19,-310 -5,-82 -14,-222 -19,-310 -5,-88 -12,-185 -15,-215 -3,-30 -13,-172 -21,-315 -9,-143 -20,-294 -25,-335 -6,-41 -10,-96 -10,-122 0,-57 -6,-55 170,-62 131,-5 283,-15 660,-41 124,-9 286,-20 360,-25 74,-6 216,-15 315,-20 99,-6 191,-12 205,-13 l 25,-2 6,115 c 3,63 10,163 14,222 l 8,106 -44,6 c -47,7 -276,23 -509,37 -551,32 -648,40 -659,53 -9,10 7,288 27,471 l 7,70 40,-1 c 22,-1 119,-7 215,-13 172,-12 288,-19 645,-40 98,-6 181,-8 184,-6 7,8 24,247 25,350 l 1,90 -30,2 c -16,1 -142,9 -280,18 -137,9 -286,20 -330,25 -44,6 -123,10 -175,10 -52,1 -133,7 -180,14 l -85,12 3,95 c 4,167 26,410 36,418 13,10 166,2 861,-44 132,-8 260,-16 285,-18 l 45,-2 7,115 c 3,63 9,163 13,221 l 8,106 -69,7 c -38,4 -136,11 -219,16 -216,13 -428,27 -685,46 -264,18 -460,31 -621,40 l -115,6 z"
       id="path4"
       style="fill:#000000;fill-opacity:1" />
    <path
       d="m 17011,21667 c -24,-162 -33,-231 -51,-362 -30,-222 -48,-350 -66,-465 -15,-101 -22,-149 -43,-310 -18,-133 -22,-164 -31,-225 -5,-33 -14,-94 -20,-135 -5,-41 -20,-140 -31,-220 -12,-80 -26,-176 -31,-215 -4,-38 -13,-101 -18,-140 -25,-176 -25,-174 1,-179 13,-3 49,-7 79,-10 82,-9 318,-41 378,-52 32,-6 32,-6 32,32 0,21 4,63 10,93 5,31 14,88 19,126 10,71 16,109 52,364 20,143 32,187 49,176 5,-3 46,-10 92,-16 46,-5 112,-14 148,-19 324,-45 494,-46 730,-5 19,4 44,10 55,14 88,36 118,52 180,92 155,101 247,251 297,484 17,83 17,367 -1,425 -72,237 -228,383 -521,491 -92,34 -111,39 -275,76 -124,28 -193,39 -420,68 -22,3 -69,10 -105,15 -36,5 -119,17 -185,26 -66,8 -136,20 -156,25 -20,5 -61,9 -90,9 h -54 z m 629,-367 c 47,-6 104,-16 127,-21 23,-5 56,-9 72,-9 34,0 91,-13 191,-42 234,-68 337,-212 295,-414 -8,-42 -24,-93 -35,-114 -23,-45 -68,-100 -82,-100 -5,0 -22,-8 -36,-19 -54,-37 -120,-51 -241,-51 -64,0 -143,5 -176,11 -70,12 -169,26 -273,38 -97,11 -107,21 -92,97 6,33 15,93 21,134 5,41 14,107 19,145 5,39 14,102 19,140 6,39 15,101 20,139 10,74 22,89 61,82 14,-2 63,-10 110,-16 z"
       id="path5"
       style="fill:#000000;fill-opacity:1" />
    <path
       d="m 7117,21754 c -4,-4 -44,-11 -89,-16 -118,-13 -201,-24 -299,-38 l -87,-12 -27,-107 c -15,-58 -31,-119 -35,-136 -10,-35 -24,-91 -41,-160 -10,-45 -41,-163 -70,-270 -14,-53 -25,-96 -44,-175 -8,-36 -27,-108 -41,-160 -14,-52 -30,-113 -35,-135 -6,-22 -14,-58 -20,-80 -6,-22 -14,-58 -18,-80 -5,-22 -21,-83 -36,-135 -14,-52 -31,-113 -36,-135 -6,-22 -14,-58 -20,-80 -5,-22 -14,-56 -18,-75 -5,-19 -25,-98 -46,-175 -39,-148 -50,-191 -61,-240 -8,-39 -48,-193 -70,-270 -9,-33 -19,-77 -21,-97 -6,-47 -32,-46 252,-8 39,5 106,14 150,19 101,12 114,17 121,50 11,49 64,263 83,337 6,23 11,51 11,62 0,33 36,49 135,62 50,7 119,16 155,21 36,5 100,13 143,19 42,5 112,15 155,20 42,6 106,14 142,19 36,5 138,19 228,32 191,27 174,34 242,-96 23,-44 45,-84 50,-90 4,-5 23,-39 42,-75 78,-146 75,-143 127,-136 25,4 78,11 116,16 39,5 131,18 205,29 74,12 141,21 148,21 13,0 8,11 -70,148 -10,17 -27,47 -37,66 -11,19 -31,53 -45,75 -15,22 -26,43 -26,45 0,3 -30,56 -66,118 -37,62 -74,127 -84,143 -58,102 -231,401 -336,583 -68,117 -124,215 -124,217 0,3 -15,28 -33,57 -19,29 -47,78 -64,108 -17,30 -76,133 -132,228 -55,96 -101,175 -101,178 0,2 -15,27 -33,56 -19,29 -51,85 -72,123 -73,137 -72,135 -119,135 -24,0 -46,-3 -49,-6 z m -99,-576 c 7,-7 12,-17 12,-23 0,-14 112,-222 191,-357 16,-27 29,-51 29,-54 0,-2 10,-21 23,-42 23,-36 53,-89 118,-209 17,-32 38,-69 46,-82 45,-72 74,-134 71,-154 -2,-18 -11,-23 -48,-28 -25,-4 -99,-14 -165,-24 -126,-18 -194,-27 -335,-47 -47,-7 -114,-12 -150,-12 l -65,-1 3,30 c 3,26 56,256 82,355 5,19 15,60 21,90 7,30 21,89 32,130 19,74 29,115 47,195 5,22 14,60 20,85 5,25 13,61 16,80 11,69 15,80 27,80 7,0 18,-5 25,-12 z"
       id="path6"
       style="fill:#000000;fill-opacity:1" />
    <path
       d="m 12347,17500 c -9,-25 -50,-197 -77,-325 -17,-83 -26,-125 -55,-245 -37,-156 -41,-171 -74,-322 -25,-112 -31,-138 -50,-212 -12,-44 -21,-89 -21,-102 0,-13 -4,-26 -10,-29 -5,-3 -10,-24 -10,-45 0,-21 -4,-42 -10,-45 -5,-3 -10,-18 -10,-32 0,-14 -5,-44 -11,-67 -17,-67 -37,-148 -49,-201 -6,-27 -15,-66 -20,-85 -5,-19 -12,-48 -15,-65 -8,-38 -21,-98 -33,-150 -6,-22 -15,-60 -20,-85 -6,-25 -18,-76 -27,-115 -9,-38 -19,-83 -22,-100 -2,-16 -8,-39 -13,-50 -5,-11 -11,-36 -14,-55 -22,-131 -35,-154 -94,-164 -20,-3 -59,-11 -87,-17 -27,-5 -67,-13 -88,-16 -20,-3 -40,-9 -43,-14 -3,-5 -16,-9 -28,-9 -13,0 -66,-11 -117,-23 -52,-13 -119,-29 -149,-36 -99,-22 -144,-32 -180,-41 -46,-12 -310,-73 -365,-85 -16,-3 -49,-10 -72,-16 -24,-5 -62,-13 -85,-18 -24,-5 -81,-19 -128,-30 -85,-22 -139,-34 -217,-52 -95,-20 -140,-31 -173,-40 -49,-12 -296,-70 -347,-80 -137,-28 -333,-76 -340,-83 -8,-7 7,-12 97,-31 138,-30 160,-35 203,-44 23,-6 60,-14 82,-19 22,-6 63,-15 90,-21 28,-5 86,-19 129,-31 44,-11 89,-20 102,-20 13,0 25,-4 28,-9 3,-5 23,-11 43,-14 53,-8 111,-20 243,-52 126,-30 173,-41 238,-56 112,-25 135,-30 175,-38 23,-5 89,-21 147,-36 58,-15 123,-29 145,-32 22,-3 44,-9 49,-14 6,-5 21,-9 34,-9 14,0 41,-4 61,-10 35,-9 175,-43 256,-62 49,-11 159,-36 255,-57 98,-21 111,-32 124,-106 4,-22 12,-59 17,-82 5,-24 13,-62 18,-85 5,-24 19,-81 30,-128 12,-47 26,-105 32,-130 6,-25 14,-61 19,-80 5,-19 12,-47 15,-62 3,-16 7,-40 10,-55 3,-16 10,-44 15,-63 15,-59 61,-252 71,-305 6,-27 15,-66 19,-85 5,-19 13,-55 19,-80 6,-25 22,-94 36,-155 14,-60 31,-130 36,-155 6,-25 14,-61 19,-80 5,-19 12,-48 15,-65 6,-33 10,-47 50,-215 15,-63 31,-131 35,-150 5,-19 13,-57 20,-85 6,-27 15,-68 20,-90 4,-22 16,-71 25,-110 9,-38 19,-85 22,-103 3,-18 9,-34 13,-37 6,-4 34,97 61,223 5,23 13,61 18,85 10,41 13,56 47,202 9,39 18,81 21,95 2,14 8,34 13,45 5,11 11,36 14,55 3,19 11,58 17,85 6,28 14,66 19,85 6,30 26,114 72,305 9,38 14,62 37,168 16,72 53,226 72,302 6,22 14,60 19,85 10,53 18,85 65,285 20,83 41,170 46,195 5,25 14,65 19,90 6,25 15,63 19,85 15,73 27,90 69,103 21,7 49,12 60,12 12,0 31,4 44,9 13,5 48,14 78,20 30,7 71,16 90,21 52,13 258,60 315,72 28,6 60,14 73,19 13,5 33,9 44,9 12,0 35,4 52,10 36,11 211,53 379,89 78,17 142,32 177,41 49,13 206,50 258,61 23,5 62,14 87,19 25,6 64,14 88,19 23,6 69,16 102,24 33,8 94,22 135,31 41,10 89,21 106,27 17,5 40,9 52,9 11,0 31,4 44,9 13,5 50,15 83,22 87,18 167,38 173,43 2,3 -9,8 -24,11 -16,4 -56,14 -89,22 -111,27 -130,31 -185,43 -59,12 -86,18 -225,50 -49,12 -119,28 -155,36 -36,8 -81,19 -100,24 -19,5 -48,12 -65,15 -66,13 -158,35 -365,85 -19,4 -60,13 -90,20 -106,23 -126,28 -240,55 -63,15 -133,31 -155,37 -22,5 -60,13 -85,18 -25,6 -65,15 -90,20 -25,6 -63,15 -85,20 -36,7 -104,24 -220,51 -50,13 -111,26 -150,34 -16,3 -46,10 -65,15 -19,5 -48,12 -63,15 -30,6 -44,30 -58,103 -15,73 -24,113 -84,367 -39,168 -49,211 -65,285 -5,25 -13,63 -19,85 -21,85 -56,234 -72,303 -33,150 -37,166 -74,322 -15,63 -32,135 -37,160 -6,25 -14,63 -20,85 -9,38 -13,56 -37,165 -5,25 -17,74 -26,110 -9,36 -21,84 -26,108 -5,23 -13,62 -19,87 -5,25 -14,64 -19,88 -24,114 -59,230 -64,217 z"
       id="path7"
       style="fill:#000000;fill-opacity:1" />
    <path
       d="m 11865,17170 c -11,-5 -39,-9 -62,-9 -23,-1 -45,-5 -48,-11 -3,-5 -20,-10 -36,-10 -17,0 -54,-7 -82,-16 -325,-102 -451,-155 -647,-269 -95,-56 -240,-147 -265,-167 -5,-4 -44,-33 -85,-65 -181,-136 -419,-391 -585,-627 -87,-124 -206,-349 -275,-521 -17,-42 -43,-111 -50,-135 -47,-145 -64,-201 -71,-237 -5,-24 -14,-64 -20,-90 -5,-27 -13,-76 -16,-111 -6,-73 4,-92 52,-92 38,0 47,16 64,110 20,109 42,204 52,222 5,10 9,26 9,35 0,10 14,56 31,103 17,47 33,95 36,108 3,12 9,25 14,28 5,3 9,12 9,19 0,31 162,361 204,415 6,8 17,26 25,40 53,95 307,399 427,510 113,105 323,257 474,344 48,28 282,144 315,157 225,86 285,103 560,160 33,7 68,19 78,27 21,18 22,58 3,78 -16,15 -79,18 -111,4 z"
       id="path8"
       style="fill:#000000;fill-opacity:1" />
    <path
       d="m 12726,17159 c -9,-13 -16,-28 -16,-34 0,-24 48,-54 105,-65 61,-12 154,-32 235,-52 51,-12 170,-50 215,-68 17,-7 39,-16 50,-20 89,-33 212,-89 268,-121 38,-21 71,-39 73,-39 8,0 281,-177 329,-214 247,-189 506,-486 664,-761 154,-269 267,-574 312,-845 6,-36 17,-80 25,-97 12,-28 19,-33 49,-33 57,0 63,35 34,190 -28,146 -61,258 -141,470 -26,67 -145,314 -188,390 -56,96 -208,303 -295,400 -95,107 -236,247 -305,305 -109,91 -286,213 -415,285 -16,9 -52,29 -80,45 -70,40 -148,77 -230,109 -38,16 -79,32 -90,37 -30,12 -172,58 -235,76 -87,24 -218,50 -296,59 -46,6 -53,4 -68,-17 z"
       id="path9"
       style="fill:#000000;fill-opacity:1" />
    <path
       d="m 10963,15827 c 6,-16 54,-93 284,-455 56,-90 103,-165 103,-168 0,-2 12,-22 26,-44 31,-47 35,-48 164,-16 76,18 96,27 98,42 2,10 12,56 23,101 10,45 19,86 19,93 0,8 -140,103 -246,167 -30,18 -206,128 -334,208 -151,95 -145,92 -137,72 z"
       id="path10"
       style="fill:#000000;fill-opacity:1" />
    <path
       d="m 13700,15816 c -47,-31 -250,-159 -272,-171 -17,-10 -294,-183 -371,-232 -28,-18 -37,-29 -32,-41 6,-15 10,-36 34,-153 10,-48 16,-56 48,-62 16,-3 59,-12 98,-21 38,-9 77,-16 85,-16 8,0 28,21 44,48 59,97 212,341 291,467 143,227 142,225 75,181 z"
       id="path11"
       style="fill:#000000;fill-opacity:1" />
    <path
       d="m 15013,14078 c -25,-12 -37,-40 -52,-128 -6,-36 -15,-85 -22,-110 -6,-25 -13,-60 -16,-78 -3,-18 -9,-35 -14,-38 -5,-3 -9,-15 -9,-27 0,-49 -106,-316 -193,-487 -139,-274 -414,-616 -647,-806 -178,-145 -475,-327 -645,-395 -140,-56 -178,-71 -250,-94 -87,-29 -144,-42 -310,-74 -90,-18 -119,-29 -133,-52 -29,-47 18,-85 93,-74 60,9 208,40 270,57 51,14 184,57 210,68 11,4 36,13 55,20 79,27 297,132 368,177 29,18 54,33 57,33 6,0 208,131 215,140 3,3 30,24 60,45 30,22 64,47 75,55 36,28 271,264 332,335 70,80 226,288 245,325 7,14 28,49 46,78 19,30 63,115 98,190 83,176 80,169 98,222 8,25 27,79 42,120 35,99 46,140 77,290 21,104 29,173 20,186 -16,22 -47,32 -70,22 z"
       id="path12"
       style="fill:#000000;fill-opacity:1" />
    <path
       d="m 9636,14067 c -16,-12 -18,-23 -13,-78 3,-35 11,-85 16,-111 6,-27 15,-67 20,-90 12,-59 80,-276 103,-328 6,-14 14,-34 18,-45 28,-74 133,-292 181,-375 29,-50 155,-238 168,-250 3,-3 24,-27 46,-55 231,-292 464,-493 800,-692 90,-53 267,-143 281,-143 3,0 22,-7 42,-16 21,-9 46,-20 57,-25 11,-4 72,-25 135,-45 63,-20 124,-40 135,-45 11,-4 36,-10 55,-14 19,-3 55,-10 80,-15 137,-28 181,-31 206,-15 31,20 32,60 1,79 -12,9 -47,20 -77,26 -55,11 -76,15 -205,45 -73,17 -255,76 -315,102 -19,8 -44,18 -55,23 -40,15 -222,105 -280,138 -335,193 -584,414 -821,729 -46,62 -84,117 -84,123 0,5 -4,10 -9,10 -5,0 -11,8 -15,18 -3,9 -20,39 -37,67 -58,92 -179,343 -179,370 0,7 -4,16 -9,19 -5,3 -11,16 -14,28 -2,13 -19,61 -36,108 -17,47 -31,95 -31,107 0,12 -4,24 -9,27 -5,3 -11,20 -14,38 -2,18 -14,75 -26,127 -11,52 -21,105 -21,117 0,24 -34,54 -60,54 -9,0 -24,-6 -34,-13 z"
       id="path13"
       style="fill:#000000;fill-opacity:1" />
    <path
       d="m 11385,13743 c -10,-15 -24,-37 -29,-48 -6,-11 -56,-92 -112,-180 -244,-387 -286,-456 -282,-460 2,-2 24,9 48,24 25,15 89,56 143,89 53,34 102,62 107,62 6,0 10,5 10,10 0,6 5,10 11,10 6,0 29,13 52,28 52,36 183,118 263,166 84,49 89,57 76,109 -6,23 -16,70 -23,104 -14,68 -16,70 -114,92 -118,26 -130,26 -150,-6 z"
       id="path14"
       style="fill:#000000;fill-opacity:1" />
    <path
       d="m 13205,13755 c -27,-8 -61,-14 -75,-15 -37,-1 -62,-24 -70,-67 -23,-114 -29,-139 -35,-154 -4,-12 12,-27 62,-59 37,-24 91,-57 118,-75 138,-89 536,-335 541,-335 4,0 -1,11 -10,24 -8,14 -24,40 -35,59 -10,19 -45,74 -77,123 -31,49 -66,105 -78,125 -12,20 -70,115 -131,212 -122,196 -113,189 -210,162 z"
       id="path15"
       style="fill:#000000;fill-opacity:1" />
  </g>
</svg>
