<?xml version="1.0" encoding="UTF-8" standalone="no"?>
<svg
   version="1.0"
   width="625.42194pt"
   height="694.20038pt"
   viewBox="0 0 625.42194 694.20038"
   preserveAspectRatio="xMidYMid"
   id="svg5"
   sodipodi:docname="logo_fill_emblem_light.svg"
   inkscape:version="1.3 (0e150ed, 2023-07-21)"
   xmlns:inkscape="http://www.inkscape.org/namespaces/inkscape"
   xmlns:sodipodi="http://sodipodi.sourceforge.net/DTD/sodipodi-0.dtd"
   xmlns="http://www.w3.org/2000/svg"
   xmlns:svg="http://www.w3.org/2000/svg">
  <defs
     id="defs5" />
  <sodipodi:namedview
     id="namedview5"
     pagecolor="#ffffff"
     bordercolor="#000000"
     borderopacity="0.25"
     inkscape:showpageshadow="2"
     inkscape:pageopacity="0.0"
     inkscape:pagecheckerboard="0"
     inkscape:deskcolor="#d1d1d1"
     inkscape:document-units="pt"
     inkscape:zoom="0.73830735"
     inkscape:cx="409.72097"
     inkscape:cy="483.53846"
     inkscape:window-width="1392"
     inkscape:window-height="999"
     inkscape:window-x="0"
     inkscape:window-y="25"
     inkscape:window-maximized="0"
     inkscape:current-layer="g5" />
  <g
     transform="matrix(0.1,0,0,-0.1,-101.15308,811.90036)"
     fill="#000000"
     stroke="none"
     id="g5"
     style="fill:#ffffff;fill-opacity:1">
    <path
       d="m 2595,7641 -1530,-476 -12,-105 c -112,-1008 7,-2195 307,-3075 161,-470 327,-812 571,-1177 408,-609 946,-1073 1624,-1399 156,-75 378,-164 521,-209 l 70,-23 85,28 c 267,88 636,258 869,400 582,355 1027,807 1389,1410 153,256 261,484 386,819 190,512 304,1050 372,1756 25,265 25,1063 0,1330 -25,268 -17,244 -95,268 -37,11 -728,225 -1535,476 -808,251 -1474,456 -1480,455 -7,0 -700,-215 -1542,-478 z m 1793,-1722 -3,-472 -105,2 c -57,1 -105,3 -105,4 0,1 1,212 3,470 l 3,467 h 105 104 z m 787,441 c 160,-11 299,-20 309,-20 18,0 18,-6 12,-92 -4,-51 -8,-93 -9,-94 -1,-1 -102,4 -225,13 -123,8 -225,14 -226,12 -2,-2 -5,-44 -7,-94 l -4,-90 165,-12 c 91,-6 184,-11 206,-12 l 42,-1 -5,-87 c -3,-49 -8,-91 -12,-95 -3,-3 -96,0 -206,7 -110,7 -201,12 -203,11 -1,-2 -5,-46 -9,-98 l -6,-95 204,-12 c 112,-7 217,-15 232,-18 l 29,-5 -7,-86 c -4,-48 -9,-89 -11,-91 -4,-5 -654,38 -663,43 -5,3 52,923 58,934 2,4 45,2 336,-18 z M 3658,5920 c 117,-248 212,-454 212,-459 0,-4 -34,-11 -77,-15 -141,-12 -129,-17 -173,78 l -39,85 -88,-6 c -48,-2 -142,-8 -208,-11 l -120,-7 -29,-86 -30,-87 -59,-6 c -81,-8 -157,-8 -157,2 1,4 74,219 164,477 l 163,470 49,6 c 27,3 79,7 115,7 l 66,2 z m 2492,335 c 196,-28 229,-36 309,-71 111,-50 171,-138 171,-255 0,-155 -68,-265 -190,-308 -77,-26 -232,-24 -381,5 l -25,5 -19,-140 c -10,-77 -22,-146 -26,-152 -6,-10 -29,-9 -106,2 l -98,14 3,30 c 7,67 123,881 127,892 3,8 15,11 32,8 15,-3 107,-17 203,-30 z M 2445,5828 c 136,-238 250,-436 252,-439 1,-4 -36,-12 -85,-18 -48,-7 -96,-14 -108,-16 -17,-4 -28,9 -65,75 -32,58 -49,80 -63,80 -50,0 -392,-53 -397,-62 -3,-5 -14,-45 -24,-89 -12,-52 -23,-80 -34,-83 -34,-9 -192,-28 -197,-23 -6,6 231,944 244,967 9,15 114,36 192,39 l 36,1 z M 4265,4185 c 59,-258 111,-474 116,-479 6,-7 917,-223 954,-227 30,-2 -74,-29 -490,-124 -253,-59 -462,-109 -465,-111 -2,-3 -55,-222 -116,-487 -99,-429 -112,-478 -121,-447 -5,19 -56,238 -114,486 l -104,451 -470,108 c -258,60 -476,111 -483,115 -7,3 198,55 455,114 257,59 475,109 483,112 11,3 44,129 124,476 104,452 114,493 121,486 1,-2 51,-214 110,-473 z m -247,308 c 3,-24 3,-24 -100,-47 -280,-64 -529,-259 -658,-516 -39,-78 -83,-206 -95,-277 -7,-44 -28,-61 -51,-42 -35,29 56,301 149,441 148,222 375,384 627,448 94,24 124,22 128,-7 z m 395,8 c 377,-97 674,-399 768,-781 21,-84 21,-92 6,-107 -24,-25 -42,-3 -57,69 -74,377 -384,689 -765,768 -66,14 -91,30 -82,54 8,21 38,20 130,-3 z m -658,-570 140,-89 -2,-43 c -1,-26 -9,-48 -18,-55 -15,-12 -85,-29 -89,-22 -70,108 -183,298 -178,298 4,0 70,-40 147,-89 z m 933,67 c -8,-13 -50,-80 -94,-151 -86,-139 -78,-133 -156,-111 -17,5 -43,74 -36,95 3,10 277,187 292,188 4,1 2,-9 -6,-21 z M 3180,3235 c 76,-292 247,-513 503,-646 88,-46 195,-84 261,-94 55,-9 82,-26 73,-49 -23,-58 -328,52 -503,181 -185,138 -331,358 -389,586 -26,104 -25,130 9,125 17,-3 25,-19 46,-103 z m 2016,90 c 10,-25 -43,-210 -85,-300 -143,-305 -469,-556 -767,-591 -45,-6 -55,-4 -60,10 -10,26 7,37 83,52 280,58 538,254 670,509 41,80 85,204 98,280 4,22 10,43 12,48 7,13 43,8 49,-8 z M 3881,3202 c 3,-4 11,-26 16,-49 l 10,-41 -145,-91 c -80,-50 -148,-89 -150,-86 -4,3 24,49 154,257 23,36 24,36 66,26 24,-5 46,-12 49,-16 z m 730,-130 c 48,-75 85,-139 83,-141 -6,-6 -286,171 -291,185 -2,6 0,30 6,52 10,35 15,40 54,49 24,5 46,6 52,1 6,-5 49,-71 96,-146 z"
       id="path2"
       style="fill:#ffffff;fill-opacity:1" />
    <path
       d="m 3282,5953 -61,-185 137,7 c 75,4 139,9 140,10 2,2 -32,82 -75,178 l -79,175 z"
       id="path3"
       style="fill:#ffffff;fill-opacity:1" />
    <path
       d="m 6095,6058 c -2,-7 -9,-51 -15,-98 -6,-47 -13,-99 -16,-116 l -6,-31 84,-11 c 46,-7 102,-12 126,-12 89,0 142,46 142,124 0,83 -48,119 -189,142 -106,17 -121,17 -126,2 z"
       id="path4"
       style="fill:#ffffff;fill-opacity:1" />
    <path
       d="m 2105,5999 c -3,-13 -21,-89 -40,-169 -19,-80 -37,-154 -40,-166 l -5,-21 128,19 c 70,10 133,19 139,20 8,2 -24,69 -82,172 -78,140 -95,165 -100,145 z"
       id="path5"
       style="fill:#ffffff;fill-opacity:1" />
  </g>
</svg>
